<?xml version="1.0" encoding="UTF-8" ?>
<svg
    width="800"
    height="183.28711"
    viewBox="0 0 800 183.28711"
    version="1.1"
    xml:space="preserve"
    xmlns="http://www.w3.org/2000/svg"
>
    <g transform="translate(-88.085921,-73.347658)">
        <path
          style="fill: #db7864; stroke: #5fd3c4; stroke-width: 2;"
          d="m 133.07345,74.270218 c -7.81468,0 -14.73103,1.320437 -20.75044,3.96053 -6.01941,2.534488 -10.77154,6.178029 -14.256467,10.930197 -6.641065,9.56324 -5.848485,23.449435 -5.722767,25.240725 0.489161,6.96984 4.138737,16.57936 11.108584,22.80998 6.96985,6.12501 16.63119,9.92744 28.98683,11.4059 10.13795,1.26724 17.58392,4.22408 22.33609,8.87064 4.75216,4.64657 7.12823,10.19132 7.12823,16.63315 0,5.06898 -1.26748,9.39742 -3.80196,12.98794 -2.4289,3.48492 -5.80762,6.17875 -10.13738,8.07963 -4.32975,1.79525 -9.29372,2.692 -14.89072,2.692 -5.06898,0 -9.71519,-0.63374 -13.93934,-1.90098 -4.22415,-1.37285 -7.86769,-3.27226 -10.93019,-5.70115 -3.06251,-2.42889 -5.38562,-5.17568 -6.96967,-8.23819 -0.73923,-1.47845 -1.847822,-2.58705 -3.326272,-3.32627 -1.372849,-0.73922 -2.799208,-0.8981 -4.277661,-0.47569 -1.900866,0.52802 -3.274265,1.53249 -4.119095,3.01094 -0.739226,1.37285 -0.686264,2.90333 0.158565,4.59299 2.217678,4.75216 5.439325,8.92352 9.663474,12.51405 4.224149,3.59053 9.188129,6.38848 14.890729,8.39495 5.8082,1.90088 12.09082,2.85238 18.84946,2.85238 5.70259,0 11.03551,-0.79263 15.99888,-2.37669 5.06898,-1.58405 9.45218,-3.85418 13.14831,-6.8111 3.80174,-3.06251 6.70561,-6.81196 8.71208,-11.24733 2.11208,-4.43534 3.1677,-9.50345 3.1677,-15.20605 0,-9.92675 -3.22164,-17.95349 -9.66347,-24.07851 -6.33622,-6.23061 -16.10349,-10.29604 -29.30396,-12.19692 -7.39226,-1.05603 -13.30593,-2.63947 -17.7413,-4.75155 -4.32975,-2.21768 -7.44548,-4.8056 -9.34634,-7.76249 -1.90087,-3.06251 -4.52848,-6.97833 -4.31911,-13.3231 0.0268,-0.80962 -1.70637,-10.05502 9.07066,-20.471142 5.06898,-3.590527 11.77529,-5.385815 20.11798,-5.385815 4.75217,0.105602 8.8176,0.790503 12.19692,2.057745 3.37932,1.267246 6.23024,3.009573 8.55352,5.227251 2.42889,2.112074 4.43602,4.384019 6.02007,6.812901 0.84483,1.47846 2.05935,2.48112 3.6434,3.00914 1.68967,0.52802 3.32607,0.4221 4.91013,-0.31713 1.47845,-0.84482 2.37699,-2.05934 2.6938,-3.643397 0.42242,-1.584055 0.10465,-3.220464 -0.95139,-4.910122 -2.21768,-3.590526 -5.12155,-6.865141 -8.71208,-9.822042 -3.48493,-3.062507 -7.60332,-5.489733 -12.35549,-7.284997 -4.75216,-1.900867 -10.03211,-2.852374 -15.84031,-2.852374 z m 398.97382,0.140547 c -1.79525,0 -3.27279,0.580776 -4.43443,1.742417 -1.05603,1.161639 -1.58385,2.640959 -1.58385,4.436226 v 34.605082 h -10.29774 c -1.58406,0 -2.90449,0.52782 -3.96053,1.58385 -1.05603,0.95045 -1.58385,2.21791 -1.58385,3.80197 0,1.47845 0.52782,2.74412 1.58385,3.80016 1.05604,0.95044 2.37647,1.42709 3.96053,1.42709 h 10.29774 v 53.22389 c 0,5.91382 1.26569,11.19376 3.80016,15.84033 2.53449,4.54096 5.96799,8.13153 10.29774,10.77163 4.43535,2.64008 9.45049,3.96053 15.04749,3.96053 h 3.32627 c 1.90087,0 3.48611,-0.52782 4.75336,-1.58386 1.26724,-1.16164 1.90098,-2.64096 1.90098,-4.43623 0,-1.79525 -0.52782,-3.27278 -1.58385,-4.43442 -1.05604,-1.16164 -2.42943,-1.74242 -4.1191,-1.74242 h -4.27766 c -4.96338,0 -9.02881,-1.69115 -12.19691,-5.07048 -3.16812,-3.48492 -4.75156,-7.91928 -4.75156,-13.30508 v -53.22389 h 17.89986 c 1.58407,0 2.9027,-0.47665 3.95873,-1.42709 1.05604,-1.05604 1.58566,-2.32171 1.58566,-3.80016 0,-1.58406 -0.52962,-2.85152 -1.58566,-3.80197 -1.05603,-1.05603 -2.37466,-1.58385 -3.95873,-1.58385 H 538.22591 V 80.589408 c 0,-1.795267 -0.58078,-3.274587 -1.74242,-4.436226 -1.16164,-1.161641 -2.64095,-1.742417 -4.43622,-1.742417 z m 54.16808,0 c -1.90087,0 -3.43315,0.580776 -4.59479,1.742417 -1.05604,1.056037 -1.58385,2.53536 -1.58385,4.436226 v 87.511852 35.48259 c 0,1.79527 0.52781,3.27459 1.58385,4.43623 1.16164,1.05604 2.69392,1.58386 4.59479,1.58386 1.79526,0 3.21982,-0.52782 4.27586,-1.58386 1.16164,-1.16164 1.74241,-2.64096 1.74241,-4.43623 v -46.88848 c 0,-4.43536 1.21451,-8.39486 3.6434,-11.8798 2.4289,-3.48491 5.7035,-6.22991 9.82204,-8.23638 4.22415,-2.00647 8.92333,-3.01094 14.0979,-3.01094 5.3858,0 10.19089,1.05743 14.41503,3.1695 4.32975,2.11208 7.7085,5.27897 10.13738,9.50312 2.53448,4.22414 3.80196,9.61001 3.80196,16.15744 v 41.18554 c 0,1.68967 0.58077,3.11603 1.74242,4.27766 1.16164,1.16165 2.64096,1.74243 4.43623,1.74243 1.68964,0 3.11421,-0.58078 4.27585,-1.74243 1.16165,-1.16163 1.74242,-2.58799 1.74242,-4.27766 v -41.18554 c 0,-8.65949 -1.74233,-15.99775 -5.22725,-22.01716 -3.37932,-6.01941 -8.02552,-10.5615 -13.93934,-13.62401 -5.9138,-3.1681 -12.62011,-4.75155 -20.11797,-4.75155 -6.86424,0 -13.09389,1.53048 -18.69089,4.59299 -3.93037,2.07642 -7.3024,4.73861 -10.13918,7.96071 V 80.589408 c 0,-1.900866 -0.58077,-3.380189 -1.74241,-4.436226 -1.05604,-1.161641 -2.4806,-1.742417 -4.27586,-1.742417 z m 96.31223,0 c -2.32328,0 -4.38338,0.792623 -6.17865,2.376678 -1.68966,1.478452 -2.53344,3.536748 -2.53344,6.17684 0,2.428889 0.84378,4.488986 2.53344,6.178643 1.68966,1.689659 3.6968,2.533442 6.02008,2.533442 2.42888,0 4.48718,-0.843783 6.17685,-2.533442 1.68965,-1.689657 2.53523,-3.749754 2.53523,-6.178643 0,-2.640092 -0.89674,-4.698388 -2.692,-6.17684 -1.68966,-1.584055 -3.64383,-2.376678 -5.86151,-2.376678 z m 0,40.783725 c -1.90088,0 -3.43315,0.58078 -4.59479,1.74242 -1.05604,1.05603 -1.58386,2.53356 -1.58386,4.43442 v 82.05396 c 0,1.90088 0.52782,3.43315 1.58386,4.59479 1.16164,1.05604 2.69391,1.58386 4.59479,1.58386 1.79526,0 3.21981,-0.52782 4.27585,-1.58386 1.16165,-1.16164 1.74243,-2.69391 1.74243,-4.59479 v -82.05396 c 0,-1.90086 -0.58078,-3.37839 -1.74243,-4.43442 -1.05604,-1.16164 -2.48059,-1.74242 -4.27585,-1.74242 z m -451.46436,6.17684 c -8.4483,0 -15.99839,1.90121 -22.65142,5.70294 -6.65303,3.80174 -11.88182,9.02872 -15.68355,15.68176 -3.80173,6.65303 -5.70115,14.25608 -5.70115,22.80998 0,8.4483 1.89942,16.00019 5.70115,22.65323 3.80173,6.65303 9.03052,11.88001 15.68355,15.68175 6.65303,3.80173 14.20312,5.70295 22.65142,5.70295 8.4483,0 15.94542,-1.90122 22.49285,-5.70295 6.65304,-3.80174 11.88183,-9.02872 15.68356,-15.68175 3.90734,-6.65304 5.85971,-14.20493 5.85971,-22.65323 -0.1056,-8.5539 -2.05797,-16.15695 -5.85971,-22.80998 -3.80173,-6.65304 -9.03052,-11.88002 -15.68356,-15.68176 -6.54743,-3.80173 -14.04455,-5.70294 -22.49285,-5.70294 z m 234.4713,0 c -8.13149,0 -15.31265,1.90121 -21.54328,5.70294 -6.23061,3.80174 -11.14163,9.02872 -14.73216,15.68176 -3.48492,6.54743 -5.22724,14.15049 -5.22724,22.80998 0,8.55391 1.84825,16.15876 5.54437,22.81179 3.80174,6.65304 8.97756,11.88002 15.525,15.68175 6.65302,3.69614 14.25608,5.54439 22.80998,5.54439 4.96338,0 10.1374,-0.95151 15.52319,-2.85238 5.38578,-2.00647 9.82195,-4.48666 13.30687,-7.44356 1.26724,-1.05604 1.84802,-2.32351 1.74242,-3.80196 0,-1.47846 -0.6867,-2.85186 -2.05955,-4.1191 -1.05604,-0.84483 -2.32352,-1.21376 -3.80197,-1.10816 -1.47845,0 -2.79888,0.47486 -3.96052,1.42529 -2.32329,2.00647 -5.43901,3.69584 -9.34635,5.06868 -3.80173,1.26724 -7.60235,1.90099 -11.40409,1.90099 -6.33622,0 -11.93394,-1.42637 -16.79171,-4.27766 -4.85777,-2.85131 -8.71136,-6.75785 -11.56266,-11.72123 -2.16814,-3.91934 -3.46663,-8.30706 -3.92269,-13.1483 h 63.95769 c 1.68967,0 3.06306,-0.47487 4.1191,-1.42529 1.05604,-1.05604 1.58385,-2.42943 1.58385,-4.1191 0,-8.23709 -1.6364,-15.57533 -4.91012,-22.01715 -3.27372,-6.44183 -7.92172,-11.45877 -13.94113,-15.0493 -5.91381,-3.69613 -12.88312,-5.54438 -20.909,-5.54438 z m 377.59091,0 c -8.44829,0 -15.99838,1.90121 -22.65141,5.70294 -6.65304,3.69614 -11.88002,8.87015 -15.68176,15.5232 -3.80173,6.65303 -5.70294,14.30905 -5.70294,22.96854 0,8.55391 1.79529,16.15876 5.38581,22.81179 3.69614,6.65304 8.76603,11.88001 15.20787,15.68175 6.44182,3.69614 13.83303,5.54439 22.17572,5.54439 7.39226,0 13.93964,-1.68938 19.64228,-5.06869 5.80817,-3.48493 10.35029,-8.23706 13.624,-14.25647 v 7.12823 c 0,6.96985 1.11066,17.88408 -4.27766,30.90042 -2.74573,5.17459 -6.49512,9.18886 -11.24732,12.04016 -4.75215,2.8513 -10.08508,4.27586 -15.99889,4.27586 -6.33623,0 -11.93214,-1.16156 -16.7899,-3.48483 -4.75218,-2.32329 -8.66053,-5.38605 -11.72303,-9.18779 -0.95043,-1.26724 -2.27086,-2.05806 -3.96053,-2.37487 -1.68966,-0.31681 -3.22014,-8.4e-4 -4.59299,0.94959 -1.37285,0.95043 -2.16548,2.16495 -2.37668,3.6434 -0.1056,1.47845 0.42221,2.85185 1.58386,4.11909 4.11853,5.3858 9.34733,9.61011 15.68355,12.67262 6.33622,3.16811 13.67446,4.75155 22.01715,4.75155 8.4483,0 15.94724,-2.00712 22.49467,-6.02008 6.54741,-3.90733 11.7214,-9.2914 15.52318,-16.15564 5.41626,-13.10124 5.70295,-27.10167 5.70295,-35.65558 v -32.3149 c -0.10564,-8.65949 -2.05973,-16.31551 -5.86152,-22.96854 -3.69614,-6.65305 -8.87014,-11.82706 -15.52318,-15.5232 -6.54742,-3.80173 -14.09932,-5.70294 -22.65323,-5.70294 z m -519.14111,0.63426 c -6.12502,0 -11.61681,1.47753 -16.47459,4.43442 -2.75511,1.67704 -5.17709,3.74168 -7.28679,6.16604 v -3.47222 c 0,-1.79527 -0.58077,-3.27459 -1.74242,-4.43623 -1.05603,-1.16164 -2.4824,-1.74242 -4.27766,-1.74242 -1.90087,0 -3.43135,0.58078 -4.59299,1.74242 -1.05604,1.16164 -1.58385,2.64096 -1.58385,4.43623 v 74.45002 c 0,1.79527 0.52781,3.27459 1.58385,4.43623 1.16164,1.05604 2.69212,1.58386 4.59299,1.58386 1.79526,0 3.22163,-0.52782 4.27766,-1.58386 1.16165,-1.16164 1.74242,-2.64096 1.74242,-4.43623 v -46.88848 c 0,-6.86425 2.11126,-12.4072 6.3354,-16.63135 4.22414,-4.32975 9.61001,-6.49577 16.15745,-6.49577 6.12501,0 11.14195,2.21898 15.0493,6.65434 3.90733,4.32975 5.8615,10.24344 5.8615,17.7413 v 45.61996 c 0,1.79527 0.58078,3.27459 1.74242,4.43623 1.16165,1.05604 2.63916,1.58386 4.43442,1.58386 1.79527,0 3.22163,-0.52782 4.27766,-1.58386 1.16166,-1.16164 1.74243,-2.64096 1.74243,-4.43623 v -45.61996 c 0,-0.10744 -0.006,-0.2101 -0.007,-0.31713 h 0.007 c -0.10562,-7.28665 1.89972,-13.09442 6.01827,-17.42417 4.22415,-4.43536 9.61001,-6.65434 16.15744,-6.65434 6.12502,0 11.14197,2.21898 15.04929,6.65434 3.90735,4.32975 5.86152,10.24344 5.86152,17.7413 v 45.61996 c 0,1.79527 0.58078,3.27459 1.74242,4.43623 1.16164,1.05604 2.63915,1.58386 4.43442,1.58386 1.79526,0 3.22162,-0.52782 4.27766,-1.58386 1.16164,-1.16164 1.74242,-2.64096 1.74242,-4.43623 v -45.61996 c 0,-7.28666 -1.3734,-13.62403 -4.1191,-19.00982 -2.64009,-5.38579 -6.38775,-9.55714 -11.24552,-12.51406 -4.75217,-2.95689 -10.24396,-4.43442 -16.47458,-4.43442 -6.54743,0 -12.40815,1.47753 -17.58274,4.43442 -4.524,2.58516 -8.20039,6.09932 -11.0293,10.541 -2.55191,-4.44153 -5.9517,-7.9559 -10.19863,-10.541 -4.75217,-2.95689 -10.24216,-4.43442 -16.47277,-4.43442 z m 422.89555,0 c -6.86423,0 -13.09569,1.53049 -18.69268,4.59299 -3.93023,2.07635 -7.30066,4.73877 -10.13738,7.96071 v -5.42546 c 0,-1.90087 -0.58077,-3.38019 -1.74241,-4.43623 -1.05604,-1.16164 -2.4824,-1.74242 -4.27766,-1.74242 -1.90086,0 -3.43135,0.58078 -4.59299,1.74242 -1.05604,1.05604 -1.58385,2.53536 -1.58385,4.43623 v 74.45002 c 0,1.79527 0.52781,3.27459 1.58385,4.43623 1.16164,1.05604 2.69213,1.58386 4.59299,1.58386 1.79526,0 3.22162,-0.52782 4.27766,-1.58386 1.16164,-1.16164 1.74241,-2.64096 1.74241,-4.43623 v -46.88848 c 0,-4.43536 1.21453,-8.39486 3.6434,-11.8798 2.4289,-3.48491 5.7017,-6.22991 9.82024,-8.23638 4.22415,-2.00647 8.92333,-3.01094 14.0979,-3.01094 5.3858,0 10.19089,1.05743 14.41503,3.1695 4.32976,2.11208 7.71029,5.27897 10.13918,9.50312 2.53448,4.22414 3.80016,9.61001 3.80016,16.15744 v 41.18554 c 0,1.68967 0.58077,3.11603 1.74242,4.27766 1.16164,1.16165 2.64096,1.74243 4.43623,1.74243 1.68965,0 3.11601,-0.58078 4.27765,-1.74243 1.16165,-1.16163 1.74243,-2.58799 1.74243,-4.27766 v -41.18554 c 0,-8.6595 -1.74234,-15.99775 -5.22726,-22.01716 -3.37932,-6.01941 -8.02733,-10.5615 -13.94114,-13.62401 -5.91381,-3.1681 -12.61831,-4.75155 -20.11618,-4.75155 z m -281.34535,10.29594 c 5.9138,0 10.9837,1.3734 15.20785,4.11909 4.32975,2.7457 7.65552,6.54633 9.97881,11.40409 1.68353,3.52013 2.71993,7.3789 3.12805,11.56447 h -57.99527 c 0.53932,-3.9697 1.60662,-7.61865 3.22717,-10.9302 2.53448,-5.06898 6.0721,-9.02849 10.61307,-11.87979 4.54095,-2.8513 9.8209,-4.27766 15.84032,-4.27766 z m -234.4713,0.15857 c 6.12502,0 11.61681,1.42635 16.47459,4.27765 4.85776,2.85131 8.65839,6.81082 11.40408,11.8798 2.7457,4.96336 4.1191,10.61224 4.1191,16.94846 0,6.33622 -1.3734,11.9869 -4.1191,16.95028 -2.74569,4.96338 -6.54632,8.86992 -11.40408,11.72123 -4.85778,2.85129 -10.34957,4.27765 -16.47459,4.27765 -6.12501,0 -11.6168,-1.42636 -16.47458,-4.27765 -4.85777,-2.85131 -8.71135,-6.75785 -11.56265,-11.72123 -2.7457,-4.96338 -4.1191,-10.61406 -4.1191,-16.95028 0,-6.33622 1.3734,-11.9851 4.1191,-16.94846 2.8513,-5.06898 6.70488,-9.02849 11.56265,-11.8798 4.85778,-2.8513 10.34957,-4.27765 16.47458,-4.27765 z m 612.06221,0 c 6.23063,-1e-5 11.72244,1.42636 16.47459,4.27765 4.85774,2.7457 8.66016,6.65225 11.40589,11.72123 2.74563,4.96337 4.11909,10.66521 4.11909,17.10703 0,6.44183 -1.37346,12.14548 -4.11909,17.10884 -2.74573,4.96338 -6.54815,8.86992 -11.40589,11.72123 -4.75215,2.7457 -10.24396,4.11909 -16.47459,4.11909 -6.23061,0 -11.77357,-1.37339 -16.63133,-4.11909 -4.85778,-2.85131 -8.6602,-6.75785 -11.4059,-11.72123 -2.7457,-4.96336 -4.1191,-10.66701 -4.1191,-17.10884 0,-6.44182 1.3734,-12.14366 4.1191,-17.10703 2.7457,-5.06898 6.54812,-8.97553 11.4059,-11.72123 4.85776,-2.85129 10.40072,-4.27765 16.63133,-4.27765 z"
        />
    </g>
</svg>
